<?xml version="1.0" encoding="iso-8859-1"?>
<!-- Generator: Adobe Illustrator 19.0.0, SVG Export Plug-In . SVG Version: 6.00 Build 0)  -->
<svg version="1.1" id="Capa_1" xmlns="http://www.w3.org/2000/svg" xmlns:xlink="http://www.w3.org/1999/xlink" x="0px" y="0px"
	 viewBox="0 0 512 512" style="enable-background:new 0 0 512 512;" xml:space="preserve">
<path style="fill:#49D3DD;" d="M512,256c0,41.681-9.958,81.042-27.638,115.827c-23.907,47.031-61.91,85.692-108.46,110.414
	C340.135,501.238,299.332,512,256,512c-27.031,0-53.091-4.19-77.552-11.964c-58.974-18.714-108.69-58.222-140.539-109.913
	C13.866,351.117,0,305.173,0,256C0,114.615,114.615,0,256,0c37.522,0,73.153,8.067,105.263,22.57
	C414.469,46.602,458,88.294,484.362,140.173C502.042,174.958,512,214.319,512,256z"/>
<path style="fill:#533770;" d="M484.362,18.108v353.719c-23.907,47.031-61.91,85.692-108.46,110.414
	c-45.338-6.363-80.081-42.789-80.081-86.779c0-48.473,42.203-87.761,94.271-87.761c19.926,0,38.41,5.757,53.635,15.59v-191.07
	l-255.185,55.892v272.374c0,14.221-3.636,27.658-10.094,39.549c-58.974-18.714-108.69-58.222-140.539-109.913
	c15.715-10.94,35.224-17.408,56.362-17.408c19.937,0,38.41,5.757,53.635,15.59V100.007c0-17.93,12.487-33.437,29.999-37.282
	L361.263,22.57L462.388,0.428C473.684-2.048,484.362,6.552,484.362,18.108z"/>
<g>
</g>
<g>
</g>
<g>
</g>
<g>
</g>
<g>
</g>
<g>
</g>
<g>
</g>
<g>
</g>
<g>
</g>
<g>
</g>
<g>
</g>
<g>
</g>
<g>
</g>
<g>
</g>
<g>
</g>
</svg>
